<svg class="svg-icon" style="width: 1em; height: 1em;vertical-align: middle;fill: currentColor;overflow: hidden;" viewBox="0 0 1024 1024" version="1.1" xmlns="http://www.w3.org/2000/svg"><path d="M945.74592 368.04608l-448-298.65984c-10.752-7.168-24.76032-7.168-35.49184 0l-448 298.65984c-8.9088 5.9392-14.25408 15.93344-14.25408 26.624l0 298.65984c0 10.69056 5.34528 20.6848 14.25408 26.624l448 298.65984c5.36576 3.584 11.5712 5.36576 17.75616 5.36576s12.36992-1.78176 17.75616-5.36576l448-298.65984c8.9088-5.9392 14.25408-15.93344 14.25408-26.624l0-298.65984c0-10.69056-5.34528-20.6848-14.25408-26.624zM480.01024 654.86848l-166.31808-110.87872 166.31808-110.87872 166.31808 110.87872-166.31808 110.87872zM512 377.5488l0-221.75744 358.31808 238.87872-166.31808 110.87872-192-128zM448 377.5488l-192 128-166.31808-110.87872 358.31808-238.87872 0 221.75744zM198.30784 544.01024l-134.30784 89.53856 0-179.07712 134.30784 89.53856zM256 582.4512l192 128 0 221.75744-358.31808-238.87872 166.31808-110.87872zM512 710.4512l192-128 166.31808 110.87872-358.31808 238.87872 0-221.75744zM761.69216 544.01024l134.30784-89.53856 0 179.07712-134.30784-89.53856z"  /></svg>