<svg class="svg-icon" style="width: 1em; height: 1em;vertical-align: middle;fill: currentColor;overflow: hidden;" viewBox="0 0 1024 1024" version="1.1" xmlns="http://www.w3.org/2000/svg"><path d="M257.009 824.745a32 32 0 0 1-32-32V416.471a32 32 0 1 1 64 0v376.274a32 32 0 0 1-32 32z m223.78 0a32 32 0 0 1-32-32V416.471a32 32 0 1 1 64 0v376.274a32 32 0 0 1-32 32z" fill="#2C2C2C" /><path d="M467.328 582.395l0.532-1.94 1.792-5.807c1.531-5.012 4.06-12.175 7.496-21.237 7.132-18.013 18.125-43.439 36.654-72.274 9.39-14.403 20.752-29.614 36.224-44.688 3.958-3.717 7.865-7.51 12.795-11.028l7.148-5.376c2.35-1.823 5.493-3.318 8.268-4.956l4.337-2.381 2.191-1.178 1.096-0.589 0.548-0.291 0.282-0.144c-0.057 0.005 1.484-0.63 0.931-0.4l6.708-2.943a272.599 272.599 0 0 1 8.821-3.349c2.965-1.039 5.725-1.843 8.622-2.77 23.04-6.758 48.876-9.886 75.674-5.514a142.336 142.336 0 0 1 39.752 12.565c12.907 6.236 24.847 15.186 35.02 25.666a134.42 134.42 0 0 1 24.49 35.405c6.092 12.708 10.065 25.861 12.492 38.723 2.468 12.754 3.15 25.82 3.226 37.417l0.02 30.418c0.087 19.973-0.061 39.285-0.256 57.594-0.184 18.315-0.235 35.625-0.594 51.605a5215.646 5215.646 0 0 1-1.76 77.24l-1.117 29.297a32.026 32.026 0 0 1-33.213 30.792c-16.815-0.64-30.116-14.255-30.787-30.792l-1.116-29.297a5287.795 5287.795 0 0 1-1.761-77.24c-0.359-15.98-0.41-33.29-0.594-51.605a3893.432 3893.432 0 0 1-0.256-57.594l0.02-30.418c-0.025-8.95-0.614-16.727-1.9-24.622-2.518-15.606-8.504-28.97-17.556-38.723-8.97-9.805-21.391-16.543-36.02-19.625-14.58-3.128-30.898-2.156-46.263 1.695l-5.653 1.546-5.125 1.567-6.876 2.524c-0.696 0.287 0.696-0.302 0.512-0.215l-0.123 0.066-0.256 0.133-0.512 0.262-1.024 0.512-2.058 0.988c-1.388 0.737-2.745 1.034-4.23 2.027l-4.428 2.806c-2.98 1.597-5.924 4.09-8.868 6.385-11.889 9.282-22.963 20.68-32.927 31.677-9.815 11.228-18.806 21.96-26.486 31.867-7.705 9.876-14.53 18.596-19.86 25.984-5.565 7.26-9.708 13.138-12.672 17.044-2.888 3.917-4.434 6.001-4.434 6.001l-0.148 0.195a15.14 15.14 0 0 1-26.778-13.005zM205.809 257.26a51.2 51.2 0 1 0 102.4 0 51.2 51.2 0 1 0-102.4 0z" fill="#2C2C2C" /></svg>